# xmcd CD database file
#
# Track frame offsets:
#	150
#	28076
#	54538
#	84814
#	117416
#	143852
#	172226
#	204785
#	235302
#
# Disc length: 3600 seconds
#
# Revision: 0
# Processed by: cddbd v1.5.2PL0 Copyright (c) Steve Scherf et al.
# Submitted via: CDex 1.70beta2
#
DISCID=760e0e09
DTITLE=Russ Nolan - Two Colors
DYEAR=2004
DGENRE=Jazz
TTITLE0=Pure Imagination
TTITLE1=The One Smiling
TTITLE2=Two Colors
TTITLE3=End of Innocence
TTITLE4=Spring is Here
TTITLE5=Hai Sensei
TTITLE6=Shadow
TTITLE7=East Stroudsburg Stomp
TTITLE8=Light Traveler
EXTD=YEAR: 2004
EXTT0=
EXTT1=
EXTT2=
EXTT3=
EXTT4=
EXTT5=
EXTT6=
EXTT7=
EXTT8=
PLAYORDER=
